<svg width="111" height="56" viewBox="0 0 111 56" fill="none" xmlns="http://www.w3.org/2000/svg">
    <path d="M10.1503 48.3833V47.7609H13.885V48.3833H10.1503Z" fill="#6C7178"/>
    <path d="M16.2916 48.3833V47.7609H20.0264V48.3833H16.2916Z" fill="#6C7178"/>
    <path d="M92.4335 48.3833V47.7609H96.1682V48.3833H92.4335Z" fill="#6C7178"/>
    <path d="M98.5748 48.3833V47.7609H102.31V48.3833H98.5748Z" fill="#6C7178"/>
    <g clip-path="url(#clip0)">
        <path d="M0.912992 36V20.38H6.74299C8.45899 20.38 9.88899 20.732 11.033 21.436C12.1917 22.1253 13.0643 23.064 13.651 24.252C14.2377 25.4253 14.531 26.7307 14.531 28.168C14.531 29.752 14.2083 31.1307 13.563 32.304C12.9177 33.4773 12.0083 34.3867 10.835 35.032C9.67633 35.6773 8.31233 36 6.74299 36H0.912992ZM10.857 28.168C10.857 26.7893 10.4977 25.6747 9.77899 24.824C9.06033 23.9733 8.04833 23.548 6.74299 23.548H4.52099V32.832H6.74299C7.62299 32.832 8.37099 32.634 8.98699 32.238C9.60299 31.8273 10.065 31.27 10.373 30.566C10.6957 29.862 10.857 29.0627 10.857 28.168ZM17.661 36V20.38H21.269V36H17.661ZM29.1947 20.38H33.0887L38.4567 36H34.7607L33.5507 32.502H28.6887L27.5007 36H23.8047L29.1947 20.38ZM32.9567 30.016L31.1307 24.01L29.2607 30.016H32.9567ZM53.315 36V26.694L49.949 33.47H47.969L44.603 26.694V36H40.995V20.38H44.911L48.959 28.542L53.029 20.38H56.923V36H53.315ZM67.7648 36.132C66.6061 36.132 65.5501 35.912 64.5968 35.472C63.6581 35.0173 62.8441 34.416 62.1548 33.668C61.4654 32.9053 60.9374 32.0547 60.5708 31.116C60.2041 30.1627 60.0208 29.18 60.0208 28.168C60.0208 27.1413 60.2114 26.1587 60.5928 25.22C60.9888 24.2667 61.5314 23.4233 62.2208 22.69C62.9248 21.942 63.7534 21.3553 64.7068 20.93C65.6601 20.5047 66.7014 20.292 67.8308 20.292C68.9894 20.292 70.0381 20.5193 70.9768 20.974C71.9301 21.414 72.7441 22.0153 73.4188 22.778C74.1081 23.5407 74.6361 24.3987 75.0028 25.352C75.3694 26.2907 75.5528 27.2513 75.5528 28.234C75.5528 29.2607 75.3548 30.2507 74.9588 31.204C74.5774 32.1427 74.0348 32.986 73.3308 33.734C72.6414 34.4673 71.8201 35.054 70.8668 35.494C69.9281 35.9193 68.8941 36.132 67.7648 36.132ZM63.6948 28.212C63.6948 29.0187 63.8488 29.7813 64.1568 30.5C64.4648 31.204 64.9268 31.7833 65.5428 32.238C66.1588 32.6927 66.9068 32.92 67.7868 32.92C68.6961 32.92 69.4514 32.6853 70.0528 32.216C70.6688 31.7467 71.1234 31.1527 71.4168 30.434C71.7248 29.7007 71.8788 28.9453 71.8788 28.168C71.8788 27.3613 71.7174 26.606 71.3948 25.902C71.0868 25.1833 70.6248 24.604 70.0088 24.164C69.4074 23.724 68.6668 23.504 67.7868 23.504C66.8774 23.504 66.1148 23.7387 65.4988 24.208C64.8974 24.6627 64.4428 25.2493 64.1348 25.968C63.8414 26.6867 63.6948 27.4347 63.6948 28.212ZM82.2456 27.068V36H78.6376V20.38H81.4976L88.7356 29.576V20.38H92.3436V36H89.3956L82.2456 27.068ZM96.331 36V20.38H102.161C103.877 20.38 105.307 20.732 106.451 21.436C107.61 22.1253 108.482 23.064 109.069 24.252C109.656 25.4253 109.949 26.7307 109.949 28.168C109.949 29.752 109.626 31.1307 108.981 32.304C108.336 33.4773 107.426 34.3867 106.253 35.032C105.094 35.6773 103.73 36 102.161 36H96.331ZM106.275 28.168C106.275 26.7893 105.916 25.6747 105.197 24.824C104.478 23.9733 103.466 23.548 102.161 23.548H99.939V32.832H102.161C103.041 32.832 103.789 32.634 104.405 32.238C105.021 31.8273 105.483 31.27 105.791 30.566C106.114 29.862 106.275 29.0627 106.275 28.168Z" fill="black"/>
        <path d="M30.3125 41.25V41.9688C29.7969 41.7865 29.3646 41.6953 29.0156 41.6953C27.8542 41.6953 27.2734 42.4375 27.2734 43.9219V44.8125H28.6641V45.4375H27.2734V52H26.5078V45.4375H25.1797V44.8125H26.5078V43.6328C26.5078 42.8047 26.7474 42.151 27.2266 41.6719C27.7109 41.1875 28.3021 40.9453 29 40.9453C29.3802 40.9453 29.8177 41.0469 30.3125 41.25ZM38.5781 50.75V51.3906C37.9167 51.8906 37.4323 52.1406 37.125 52.1406C36.9479 52.1406 36.8255 52.0833 36.7578 51.9688C36.6901 51.849 36.6406 51.6094 36.6094 51.25C35.8542 51.8438 35.1042 52.1406 34.3594 52.1406C33.8177 52.1406 33.3594 51.9635 32.9844 51.6094C32.6094 51.2552 32.4219 50.8255 32.4219 50.3203C32.4219 49.5391 32.7839 48.9245 33.5078 48.4766C34.2318 48.0234 35.2656 47.763 36.6094 47.6953V46.7812C36.6094 45.8021 36.0781 45.3125 35.0156 45.3125C34.3385 45.3125 33.6068 45.6172 32.8203 46.2266V45.4375C33.6328 44.9271 34.4062 44.6719 35.1406 44.6719C35.7917 44.6719 36.3281 44.8333 36.75 45.1562C37.1719 45.474 37.3828 45.9375 37.3828 46.5469V51.0234C37.3828 51.2682 37.4401 51.3906 37.5547 51.3906C37.7005 51.3906 38.0417 51.1771 38.5781 50.75ZM36.6094 50.5781V48.3359C35.625 48.2995 34.8073 48.474 34.1562 48.8594C33.5104 49.2396 33.1875 49.7266 33.1875 50.3203C33.1875 50.6536 33.3229 50.9349 33.5938 51.1641C33.8646 51.3932 34.2031 51.5078 34.6094 51.5078C35.2656 51.5078 35.9323 51.1979 36.6094 50.5781ZM46.6172 45.2812V46.1094C45.888 45.6198 45.2318 45.375 44.6484 45.375C44.2161 45.375 43.8516 45.4922 43.5547 45.7266C43.2578 45.9609 43.1094 46.25 43.1094 46.5938C43.1094 46.8385 43.1979 47.0651 43.375 47.2734C43.5573 47.4766 44.0547 47.7344 44.8672 48.0469C45.6849 48.3594 46.2188 48.6849 46.4688 49.0234C46.7188 49.362 46.8438 49.7396 46.8438 50.1562C46.8438 50.7135 46.6172 51.1849 46.1641 51.5703C45.7109 51.9505 45.151 52.1406 44.4844 52.1406C43.7604 52.1406 43.0417 51.9219 42.3281 51.4844V50.7344C43.1771 51.1719 43.9297 51.3906 44.5859 51.3906C45.0286 51.3906 45.3906 51.2734 45.6719 51.0391C45.9583 50.8047 46.1016 50.5052 46.1016 50.1406C46.1016 49.8906 46.0078 49.6615 45.8203 49.4531C45.638 49.2396 45.138 48.9714 44.3203 48.6484C43.5078 48.3255 42.9792 48.0078 42.7344 47.6953C42.4948 47.3776 42.375 47.026 42.375 46.6406C42.375 46.0938 42.599 45.6302 43.0469 45.25C43.5 44.8646 44.0495 44.6719 44.6953 44.6719C45.2839 44.6719 45.9245 44.875 46.6172 45.2812ZM52.1016 41.0859V46.0625H52.1328C52.7318 45.1354 53.5208 44.6719 54.5 44.6719C55.3125 44.6719 55.9609 44.9323 56.4453 45.4531C56.9297 45.974 57.1719 46.6901 57.1719 47.6016V52H56.4062V47.9062C56.4062 46.25 55.7552 45.4219 54.4531 45.4219C53.5208 45.4219 52.737 45.9349 52.1016 46.9609V52H51.3359V41.0859H52.1016ZM63.0781 41.0859V42.3984H62.3047V41.0859H63.0781ZM63.0781 44.8125V52H62.3047V44.8125H63.0781ZM71.5391 44.6719C72.5807 44.6719 73.4479 45.0286 74.1406 45.7422C74.8385 46.4557 75.1875 47.3464 75.1875 48.4141C75.1875 49.4766 74.8385 50.3646 74.1406 51.0781C73.4479 51.7865 72.5807 52.1406 71.5391 52.1406C70.4974 52.1406 69.625 51.7865 68.9219 51.0781C68.224 50.3646 67.875 49.4766 67.875 48.4141C67.875 47.3464 68.224 46.4557 68.9219 45.7422C69.625 45.0286 70.4974 44.6719 71.5391 44.6719ZM71.5391 51.3906C72.3464 51.3906 73.0208 51.1094 73.5625 50.5469C74.1042 49.9792 74.375 49.2682 74.375 48.4141C74.375 47.5651 74.1016 46.8542 73.5547 46.2812C73.013 45.7083 72.3411 45.4219 71.5391 45.4219C70.7266 45.4219 70.0469 45.7057 69.5 46.2734C68.9583 46.8411 68.6875 47.5547 68.6875 48.4141C68.6875 49.2682 68.9583 49.9792 69.5 50.5469C70.0469 51.1094 70.7266 51.3906 71.5391 51.3906ZM80.6328 44.8125V46.0625H80.6641C81.263 45.1354 82.0521 44.6719 83.0312 44.6719C83.8438 44.6719 84.4922 44.9323 84.9766 45.4531C85.4609 45.974 85.7031 46.6953 85.7031 47.6172V52H84.9375V47.9062C84.9375 46.25 84.2865 45.4219 82.9844 45.4219C82.0312 45.4219 81.2474 45.9349 80.6328 46.9609V52H79.8672V44.8125H80.6328Z" fill="#6C7178"/>
    </g>
    <path fill-rule="evenodd" clip-rule="evenodd" d="M56 1.44572L47.5422 11.489L50.714 15.7182H61.286L64.4577 11.489L56 1.44572Z" stroke="#6C7178"/>
    <path d="M47.5422 11.4893H64.4577" stroke="#6C7178"/>
    <path d="M56 1.44573L59.1718 11.489" stroke="#6C7178"/>
    <path d="M56.0001 1.44573L52.8284 11.489" stroke="#6C7178"/>
    <path d="M50.7139 15.7181L52.8281 11.4889" stroke="#6C7178"/>
    <path d="M52.8284 11.4893L56.0001 15.7185" stroke="#6C7178"/>
    <path d="M56 15.7181L59.1718 11.4889" stroke="#6C7178"/>
    <path d="M59.1716 11.4893L61.2859 15.7185" stroke="#6C7178"/>
    <defs>
        <clipPath id="clip0">
            <rect width="111" height="41" fill="white" transform="translate(0 15)"/>
        </clipPath>
    </defs>
</svg>
