<svg width="27" height="23" viewBox="0 0 27 23" fill="none" xmlns="http://www.w3.org/2000/svg">
    <path fill-rule="evenodd" clip-rule="evenodd" d="M10.512 5.52C10.208 3.168 8.496 1.28 6.704 1.232C4.912 1.168 3.712 2.976 4.016 5.328C4.32 7.68 6.032 9.632 7.824 9.68C9.616 9.728 10.832 7.872 10.512 5.52ZM7.584 14.24C4.912 14.224 2.512 15.872 2.512 17.856C2.512 19.888 4.448 21.584 7.12 21.584C10.88 21.584 12.192 19.984 12.192 17.968C12.192 17.712 12.16 17.472 12.112 17.248C11.808 16.096 10.768 15.536 9.328 14.528C8.8 14.352 8.208 14.256 7.584 14.24ZM10.768 1.168C12.24 2.32 13.024 3.536 13.024 5.28C13.024 6.752 12.208 8.112 11.056 9.008C9.936 9.888 9.712 10.256 9.712 11.008C9.712 11.632 10.912 12.72 11.552 13.168C13.392 14.464 13.984 15.664 13.984 17.68C13.984 20.192 11.552 22.688 7.136 22.688C3.264 22.688 0 21.12 0 18.608C0 16.048 2.976 13.6 6.848 13.6L8.064 13.584C7.536 13.072 7.104 12.432 7.104 11.648C7.104 11.2 7.264 10.736 7.472 10.336C7.248 10.352 7.04 10.336 6.816 10.336C3.648 10.336 1.52 8.016 1.52 5.216C1.52 2.48 4.448 0 7.568 0H14.544L12.976 1.168H10.768ZM21.712 5.776V10.4H20.56V5.776H15.92V4.624H20.56V0H21.712V4.624H26.336V5.776H21.712Z" fill="#B2B2B2"/>
</svg>
