<svg width="24" height="24" viewBox="0 0 24 24" fill="none" xmlns="http://www.w3.org/2000/svg">
    <path fill-rule="evenodd" clip-rule="evenodd" d="M3.77255 0H20.2239C22.3066 0 23.9964 1.68979 23.9964 3.77612V20.2274C23.9964 22.3102 22.3066 24 20.2239 24H3.77255C1.68979 24 0 22.3102 0 20.2274V3.77612C0 1.68979 1.68979 0 3.77255 0ZM20.6879 2.76868L17.6728 2.77583C17.3834 2.7794 17.1512 3.01161 17.1547 3.30098L17.1655 6.32688C17.1655 6.61268 17.3977 6.84489 17.687 6.84489L20.6987 6.83418C20.988 6.83418 21.2202 6.60196 21.2202 6.31259V3.28669C21.2202 3.00089 20.9845 2.76511 20.6951 2.76868H20.6879ZM8.32033 9.93867C8.39893 9.80292 8.4811 9.66716 8.57398 9.53855C9.34207 8.47395 10.5889 7.77731 11.9964 7.77731C13.4076 7.77731 14.6544 8.47395 15.4224 9.53855C15.5153 9.66716 15.5975 9.80292 15.6761 9.94224C16.0191 10.5496 16.2227 11.2533 16.2227 12C16.2227 14.3293 14.3257 16.2227 11.9964 16.2227C9.66716 16.2227 7.77374 14.3293 7.77374 12C7.77339 11.2533 7.9738 10.5496 8.32033 9.93867ZM19.3593 21.6636C20.6276 21.6636 21.66 20.6311 21.66 19.3629V9.53855H18.0768C18.1661 9.75648 18.2411 9.98512 18.309 10.2138C18.4698 10.7818 18.5591 11.382 18.5591 12C18.5591 15.6189 15.6154 18.5627 11.9964 18.5627C8.38107 18.5627 5.43733 15.6189 5.43733 12C5.43733 11.382 5.52307 10.7818 5.68741 10.2138C5.75171 9.98512 5.83031 9.75648 5.91962 9.53855H2.33641V19.3629C2.33641 20.6311 3.36886 21.6636 4.63709 21.6636H19.3593Z" fill="#B2B2B2"/>
</svg>
