<svg width="32" height="32" viewBox="0 0 32 32" fill="none" xmlns="http://www.w3.org/2000/svg">
    <path fill-rule="evenodd" clip-rule="evenodd" d="M17.3333 12H14.6666V8H10.6666V5.33334H14.6666V1.33334H17.3333V5.33334H21.3333V8H17.3333V12ZM6.67992 26.6667C6.67992 25.2 7.86659 24 9.33325 24C10.7999 24 11.9999 25.2 11.9999 26.6667C11.9999 28.1333 10.7999 29.3333 9.33325 29.3333C7.86659 29.3333 6.67992 28.1333 6.67992 26.6667ZM22.6666 24C21.1999 24 20.0133 25.2 20.0133 26.6667C20.0133 28.1333 21.1999 29.3333 22.6666 29.3333C24.1333 29.3333 25.3333 28.1333 25.3333 26.6667C25.3333 25.2 24.1333 24 22.6666 24ZM9.59992 19.5067L9.55992 19.6667C9.55992 19.8533 9.71992 20 9.89325 20H25.3333V22.6667H9.33325C7.86659 22.6667 6.66659 21.4667 6.66659 20C6.66659 19.5333 6.78659 19.0933 6.99992 18.72L8.79992 15.4533L3.99992 5.33334H1.33325V2.66667H5.69325L6.94659 5.33334L8.21325 8L11.1999 14.3067L11.3733 14.6667H20.7333L24.4133 8L25.8799 5.33334H25.8933L28.2133 6.61334L23.0666 15.96C22.6133 16.7867 21.7333 17.3333 20.7333 17.3333H10.7999L9.59992 19.5067Z" fill="#A8A8A8"/>
</svg>
