<svg width="25" height="21" viewBox="0 0 25 21" fill="none" xmlns="http://www.w3.org/2000/svg">
    <path fill-rule="evenodd" clip-rule="evenodd" d="M24.992 2.4C24.08 2.8 23.088 3.072 22.048 3.2C23.104 2.576 23.92 1.568 24.304 0.368C23.312 0.96 22.224 1.376 21.056 1.616C20.112 0.624 18.784 0 17.312 0C14.48 0 12.176 2.288 12.176 5.12C12.176 5.52 12.224 5.904 12.304 6.272C8.048 6.064 4.272 4.032 1.744 0.928C1.296 1.696 1.04 2.576 1.04 3.504C1.04 5.28 1.952 6.848 3.328 7.76C2.48 7.744 1.696 7.504 1.008 7.12V7.184C1.008 9.664 2.768 11.728 5.12 12.208C4.688 12.32 4.24 12.384 3.76 12.384C3.44 12.384 3.12 12.352 2.8 12.288C3.456 14.32 5.344 15.808 7.584 15.84C5.84 17.216 3.632 18.032 1.216 18.032C0.816 18.032 0.4 18.016 0 17.968C2.272 19.408 4.96 20.256 7.856 20.256C17.296 20.256 22.448 12.464 22.448 5.712L22.432 5.04C23.44 4.32 24.304 3.424 24.992 2.4Z" fill="#B2B2B2"/>
</svg>
